<svg id="Capa_1" viewBox="0 0 512 512" xmlns="http://www.w3.org/2000/svg"><path d="M288.134 319.2c88.291 0 159.6-71.458 159.6-159.6 0-88.004-71.596-159.6-159.6-159.6H127.467c-8.284 0-15 6.716-15 15v209.933h-33.2c-8.284 0-15 6.716-15 15V304.2c0 8.284 6.716 15 15 15h33.2v34.267h-33.2c-8.284 0-15 6.716-15 15v64.267c0 8.284 6.716 15 15 15h33.2V497c0 8.284 6.716 15 15 15h64.267c8.284 0 15-6.716 15-15v-49.267H304.2c8.284 0 15-6.716 15-15v-64.267c0-8.284-6.716-15-15-15h-97.467V319.2zM206.733 94.267h81.4c36.024 0 65.333 29.309 65.333 65.333s-29.309 65.333-65.333 65.333h-81.4z"/></svg>